<?xml version="1.0" encoding="UTF-8"?><svg id="a" xmlns="http://www.w3.org/2000/svg" width="136" height="104" viewBox="0 0 136 104"><g id="b"><path d="M130.67,39.82v4.37s-.76.33-.76.33c-.66.07-1.28-.18-1.86-.44-1.21-2.68-3.26-5.36-6.14-6.15-1.81-.49-3.69-.34-5.26.77l-8.95,6.27-7.15,5.11-10.83,7.55c-1.54,1.07-2.96,2.21-4.66,2.95l-2.54,1.11c-.49.32-.72,1.13-.94,1.67-1.1,2.74-1.71,5.56-2.3,8.44-.62,3.03-1.55,5.63-4.37,7.3-3.75,2.21-9.66.61-13.63-1.26s-7.29-4.94-9.67-8.73c-1.48-2.36-2.56-4.81-3.24-7.51l-.95-3.78c-.32-1.28-.6-2.5-1.23-3.65-.85-1.55-2.5-2.53-4.26-2.31-.78.4-1.16,1.12-1.42,1.98-.57,2.08-.95,4.16-1.9,6.07l-1,1.99c-2.3,3.54-5.33,5.83-9.68,5.99s-8.3-1.05-11.84-3.25c-3.94-2.45-6.36-6.42-7.23-10.92s-1.9-9.19-3.25-13.72c-.15-2.18-.35-4.14-.28-6.3l3.08-.86c1.47-.41,2.99-.02,4.5-.14,1.29-.1,2.47-.57,3.75-.86l9.74-2.2,5.14-1.19,4.38-.98,4.27-.99,7.22-1.65,1.55-.33,7.95-1.83,5.28-1.17,7.39-1.63c2.6-.07,5.07.62,7.33,1.87l2.38,1.5c2.11,1.32,4.13,2.61,6.27,3.83.87.49,1.69,1.05,2.28,1.84.36.48.21,1.3-.14,1.71-1.38,1.63-3.09,1.74-4.97.8-2.39-5.44-8.36-9.08-14.15-7.64l-4.39,1.37-15.79,5.44c-6.8,2.34-13.5,4.41-20.46,6.33,4.1,1.85,7.11,4.71,10.94,6.72,3.79,2.19,8.09,3.04,12.52,2.59l3.02-.3c2.33-.23,4.56-.07,6.85.38l5.19,1.28c5.42,1.49,10.53,3.65,15.18,6.9l12.62-7.29,12.76-7.23,9.9-5.3c1.95-1.04,5.1-.21,7.13,1.06l4.99,3.11,1.62,1.02ZM31.81,64.67c4.54-2.52,5.49-8.04,5.53-12.97.02-2.34-.55-4.53-1.86-6.42-2.08-2.97-5.4-5.15-8.7-6.44l-2.99-1.17c-4.42.83-8.71,1.74-13.09,2.81-.3,1.11-.4,2.22-.46,3.38-.11,1.99-.16,4.01.06,5.98s.5,3.93,1.16,5.8c1.16,3.27,3.3,5.96,6.38,7.63,1.76.95,3.6,1.69,5.59,2.03.34.06.6.1.93.18,2.31.56,5.36.33,7.45-.83ZM72.2,77.82c.89-.14,1.74-.57,2.45-1.16,2.46-2.05,2.65-5.92,2.79-9.08.12-2.72-.03-5.34-.56-7.96-.49-2.38-1.72-4.35-3.55-5.95-2.92-2.55-7.86-4.35-11.65-5.08-1.62-.32-3.12-.63-4.76-.68-3.02-.09-6.06.94-6.79,4.05-.12.5-.32.95-.31,1.52.01,2.33.02,4.68.61,6.88l.86,3.25c2.67,7.33,7.95,12.23,15.45,13.95,1.78.41,3.63.58,5.47.29Z"/></g></svg>